<?xml version="1.0" standalone="no"?>
<!DOCTYPE svg PUBLIC "-//W3C//DTD SVG 20010904//EN"
 "http://www.w3.org/TR/2001/REC-SVG-20010904/DTD/svg10.dtd">
<svg version="1.0" xmlns="http://www.w3.org/2000/svg"
 width="300.000000pt" height="300.000000pt" viewBox="0 0 300.000000 300.000000"
 preserveAspectRatio="xMidYMid meet">
<metadata>
Created by potrace 1.11, written by Peter Selinger 2001-2013
</metadata>
<g transform="translate(0.000000,300.000000) scale(0.100000,-0.100000)"
fill="#000000" stroke="none">
<path d="M1013 2733 c4 -6 3 -14 -3 -18 -5 -3 -10 -2 -10 2 0 12 -53 10 -62
-2 -5 -6 -8 -5 -8 4 0 10 -3 11 -14 2 -10 -8 -16 -9 -21 -1 -3 5 -11 10 -16
10 -6 0 -7 -5 -3 -12 5 -7 3 -8 -7 -3 -17 11 -61 16 -55 6 3 -3 -4 -7 -15 -7
-10 0 -19 4 -19 8 0 5 -10 4 -21 -3 -15 -8 -19 -8 -15 0 9 14 -36 10 -46 -4
-5 -6 -8 -5 -8 4 0 10 -3 11 -14 2 -10 -8 -16 -9 -21 -1 -3 5 -11 10 -16 10
-6 0 -7 -5 -3 -12 5 -7 3 -8 -7 -3 -17 11 -61 16 -55 6 3 -3 -4 -7 -15 -7 -10
0 -19 3 -19 6 0 3 -11 6 -25 6 -16 1 -22 -2 -18 -10 4 -6 -1 -5 -10 3 -11 9
-17 10 -17 2 0 -6 -5 -11 -11 -11 -5 0 -7 6 -3 13 5 8 2 8 -9 -2 -14 -11 -17
-11 -17 0 -1 9 -4 8 -11 -4 -6 -9 -15 -14 -21 -11 -7 4 -8 2 -4 -5 6 -9 11 -9
22 0 10 8 14 8 14 0 0 -11 -4 -12 -40 -15 -10 0 -25 -8 -32 -16 -11 -12 -11
-12 4 -2 11 9 18 10 23 2 4 -6 3 -10 -2 -9 -21 3 -54 -15 -49 -27 3 -8 1 -14
-5 -14 -6 0 -7 -4 -4 -10 3 -5 1 -10 -5 -10 -6 0 -8 -5 -4 -12 5 -9 2 -8 -9 1
-15 12 -17 12 -11 -3 5 -13 2 -15 -12 -9 -18 7 -18 6 -1 -11 20 -21 22 -27 5
-21 -9 4 -13 -8 -13 -40 0 -25 4 -45 10 -45 5 0 4 -4 -4 -9 -12 -8 -12 -12 -2
-24 9 -11 9 -17 0 -22 -8 -6 -7 -10 2 -16 8 -5 10 -9 4 -9 -5 0 -10 -13 -10
-30 0 -16 4 -30 8 -30 5 0 5 -5 2 -10 -4 -6 -12 -7 -18 -3 -7 4 -6 0 2 -10 7
-9 11 -26 8 -37 -3 -11 -1 -20 5 -20 5 0 6 -5 3 -10 -4 -6 -12 -7 -18 -3 -7 4
-6 0 2 -10 7 -9 11 -26 8 -37 -3 -11 -1 -20 5 -20 5 0 6 -5 3 -10 -4 -6 -12
-7 -18 -3 -7 4 -6 0 2 -10 7 -9 11 -26 8 -37 -3 -11 -1 -20 5 -20 5 0 6 -5 3
-10 -4 -6 -11 -7 -17 -4 -5 4 -2 -6 8 -22 11 -15 14 -25 7 -21 -13 8 -12 -30
2 -52 5 -10 4 -12 -3 -7 -7 4 -12 3 -12 -3 0 -5 5 -13 10 -16 8 -5 7 -11 -1
-21 -9 -11 -8 -14 2 -14 9 0 10 -3 4 -8 -14 -10 -18 -55 -4 -46 8 4 8 0 0 -15
-7 -11 -8 -21 -3 -21 4 0 8 -9 8 -19 0 -11 -4 -18 -7 -15 -10 6 -5 -38 6 -55
5 -10 4 -12 -3 -7 -7 4 -12 3 -12 -3 0 -5 5 -13 10 -16 8 -5 7 -11 -1 -21 -9
-11 -8 -14 2 -14 9 0 10 -3 4 -8 -14 -10 -18 -55 -4 -46 8 4 8 0 0 -15 -7 -11
-8 -21 -3 -21 4 0 8 -9 8 -19 0 -11 -4 -18 -7 -15 -10 6 -5 -38 6 -55 5 -10 4
-12 -3 -7 -7 4 -12 3 -12 -3 0 -5 5 -13 10 -16 8 -5 7 -11 -1 -21 -9 -11 -8
-14 2 -14 9 0 10 -3 4 -8 -12 -9 -14 -62 -2 -62 4 0 5 -5 2 -10 -4 -6 -12 -7
-18 -3 -7 4 -6 0 2 -10 7 -9 11 -26 8 -37 -3 -11 -1 -20 5 -20 5 0 6 -5 3 -10
-4 -6 -12 -7 -18 -3 -7 4 -6 0 2 -10 7 -9 11 -26 8 -37 -3 -11 -1 -20 5 -20 5
0 6 -5 3 -10 -4 -6 -12 -7 -18 -3 -7 4 -6 0 2 -10 7 -9 11 -26 8 -37 -3 -11
-1 -20 5 -20 5 0 6 -5 3 -10 -4 -6 -11 -7 -17 -4 -5 4 -2 -6 8 -22 11 -15 14
-25 7 -21 -13 8 -12 -30 2 -52 5 -10 4 -12 -3 -7 -7 4 -12 3 -12 -3 0 -5 5
-13 10 -16 8 -5 7 -11 -1 -21 -9 -11 -8 -14 2 -14 9 0 10 -3 4 -8 -14 -10 -18
-55 -4 -46 8 4 8 0 0 -15 -7 -11 -8 -21 -3 -21 4 0 8 -9 8 -19 0 -11 -4 -18
-7 -15 -10 6 -5 -38 6 -55 5 -10 4 -12 -3 -7 -7 4 -12 3 -12 -3 0 -5 5 -13 10
-16 8 -5 7 -11 -1 -21 -9 -11 -8 -14 2 -14 9 0 10 -3 4 -8 -14 -10 -18 -55 -4
-46 8 4 8 0 0 -15 -7 -11 -8 -21 -3 -21 4 0 8 -9 8 -19 0 -11 -4 -18 -7 -15
-9 5 -5 -43 4 -53 4 -3 2 -12 -4 -20 -9 -10 -8 -13 0 -13 7 0 9 -5 4 -12 -11
-19 -12 -38 -2 -38 5 0 9 -5 9 -11 0 -5 -4 -7 -10 -4 -16 10 -11 -1 7 -16 9
-8 14 -9 10 -3 -3 6 0 11 6 11 8 0 12 -12 11 -29 -1 -19 3 -28 13 -28 8 0 11
-5 7 -12 -5 -7 -2 -9 9 -5 12 4 14 2 10 -10 -5 -12 -3 -14 7 -8 10 6 12 4 7
-9 -4 -11 -3 -15 4 -11 6 4 17 -1 25 -11 9 -11 13 -13 9 -6 -3 6 0 12 7 12 16
-1 49 -25 43 -32 -3 -2 2 -5 10 -5 8 0 11 5 8 11 -4 6 1 5 10 -3 14 -11 17
-11 17 0 0 9 3 10 8 4 10 -15 46 -19 37 -5 -6 9 -2 9 14 1 16 -9 21 -9 21 1 0
8 3 9 8 3 9 -12 46 -20 39 -8 -3 5 3 9 14 9 10 0 19 -4 19 -9 0 -5 7 -4 15 3
14 12 19 7 16 -15 -1 -5 6 -1 14 9 9 12 15 15 15 7 0 -11 3 -11 15 -1 14 12
19 7 16 -15 -1 -5 6 -1 14 9 9 12 15 15 15 7 0 -9 4 -10 12 -5 16 11 39 11 56
1 7 -5 12 -3 12 5 0 9 3 9 10 -2 6 -9 13 -11 18 -5 6 9 27 11 42 5 19 -7 50
-5 50 4 0 7 3 7 8 1 10 -15 46 -19 37 -5 -6 9 -2 9 14 1 16 -9 21 -9 21 1 0 8
3 9 8 3 9 -13 46 -20 38 -7 -6 10 30 9 40 -1 10 -10 26 -9 20 1 -2 4 4 8 15 8
13 0 18 -5 14 -16 -5 -12 -3 -12 11 2 16 15 19 15 43 0 20 -13 23 -13 14 -2
-9 13 -6 15 23 15 26 0 33 -3 29 -15 -5 -12 -2 -11 11 2 16 15 19 15 43 0 25
-16 26 -16 11 2 -14 18 -14 19 8 7 13 -7 22 -8 22 -2 0 7 9 7 25 1 18 -7 25
-6 25 3 0 7 3 8 8 2 10 -15 46 -19 37 -5 -6 9 -2 9 14 1 16 -9 21 -9 21 1 0 8
3 9 8 3 9 -12 46 -20 39 -8 -3 5 3 9 14 9 10 0 19 -4 19 -9 0 -5 7 -4 15 3 14
12 19 7 16 -15 -1 -5 6 -1 14 9 9 12 15 15 15 7 0 -11 3 -11 15 -1 14 12 19 7
16 -15 -1 -5 6 -1 14 9 9 12 15 15 15 7 0 -9 4 -10 13 -5 15 11 38 11 55 1 7
-5 12 -3 12 5 0 9 3 9 10 -2 6 -9 13 -11 18 -5 6 9 27 11 42 5 19 -7 50 -5 50
4 0 7 3 7 8 1 10 -15 46 -19 37 -5 -6 9 -2 9 14 1 16 -9 21 -9 21 1 0 8 3 9 8
3 9 -13 46 -20 38 -7 -6 10 30 9 40 -1 10 -10 26 -9 20 1 -2 4 4 8 15 8 13 0
18 -5 14 -16 -5 -12 -3 -12 11 2 16 15 19 15 43 0 20 -13 23 -13 14 -2 -9 13
-6 15 23 15 26 0 33 -3 29 -15 -5 -12 -2 -11 11 2 16 15 19 15 43 0 25 -16 26
-16 11 2 -14 18 -14 19 8 7 13 -7 22 -8 22 -2 0 7 9 7 25 1 18 -7 25 -6 25 3
0 7 3 8 8 2 11 -16 46 -19 36 -3 -6 11 -5 11 8 0 10 -8 19 -9 22 -3 4 5 15 8
25 6 11 -2 27 3 38 10 15 11 21 11 38 -3 18 -16 19 -16 6 0 -17 23 -5 43 17
26 12 -10 14 -10 8 0 -4 7 -2 12 7 12 8 0 21 8 28 18 13 15 12 16 -4 3 -9 -8
-20 -12 -23 -9 -2 3 10 12 27 20 29 15 30 17 13 28 -19 11 -19 11 0 6 14 -5
17 -2 14 12 -3 11 0 19 8 19 7 0 11 -4 8 -9 -3 -4 2 -5 11 -2 14 6 14 8 -2 21
-15 13 -16 14 -1 10 11 -4 15 -1 13 11 -2 9 -4 17 -5 17 -1 0 -3 8 -5 18 -2 9
1 15 5 12 5 -3 8 4 7 15 -1 11 -6 20 -11 20 -5 0 -1 7 10 15 10 8 15 15 9 14
-22 -3 -27 2 -15 16 9 11 9 15 1 15 -7 0 -9 5 -6 10 4 6 11 8 16 5 14 -9 11 2
-7 19 -9 9 -11 16 -4 16 6 0 8 5 4 12 -12 19 -12 48 -1 48 5 0 3 8 -4 17 -12
15 -12 16 5 10 16 -6 17 -5 6 8 -7 8 -10 24 -7 35 3 11 1 20 -5 20 -5 0 -6 5
-3 10 4 6 11 8 16 5 5 -3 6 1 3 9 -3 9 -11 13 -18 9 -6 -4 -5 1 3 10 11 14 11
17 0 17 -8 0 -5 6 7 15 10 8 15 15 9 14 -22 -3 -27 2 -15 16 9 11 9 15 1 15
-7 0 -9 5 -6 10 4 6 11 8 16 5 14 -9 11 2 -7 19 -9 9 -11 16 -4 16 6 0 8 5 4
12 -12 19 -12 48 -1 48 5 0 3 8 -4 17 -12 15 -12 16 5 10 16 -6 17 -5 6 8 -7
8 -10 24 -7 35 3 11 1 20 -5 20 -5 0 -6 5 -3 10 4 6 11 8 16 5 5 -3 6 1 3 9
-3 9 -11 13 -18 9 -6 -4 -5 1 3 10 11 14 11 17 0 17 -8 0 -5 6 7 15 10 8 15
15 9 14 -22 -3 -27 2 -15 16 9 11 9 15 1 15 -7 0 -9 5 -6 10 4 6 11 8 16 5 14
-9 11 2 -7 19 -9 9 -11 16 -4 16 6 0 8 5 4 12 -12 19 -12 48 -1 48 5 0 3 8 -4
17 -12 15 -12 16 5 10 16 -6 17 -5 6 8 -7 8 -10 24 -7 35 3 11 1 20 -5 20 -5
0 -6 5 -3 10 4 6 11 8 16 5 5 -3 6 1 3 9 -3 9 -11 13 -18 9 -6 -4 -5 1 3 10
11 14 11 17 0 17 -8 0 -5 6 7 15 10 8 15 15 9 14 -22 -3 -27 2 -15 16 9 11 9
15 1 15 -7 0 -9 5 -6 10 4 6 11 8 16 5 14 -9 11 2 -7 19 -9 9 -11 16 -4 16 6
0 8 5 4 12 -12 19 -12 48 -1 48 5 0 3 8 -4 17 -12 15 -12 16 5 10 16 -6 17 -5
6 8 -7 8 -10 24 -7 35 3 11 1 20 -5 20 -5 0 -6 5 -3 10 4 6 11 8 16 5 5 -3 6
1 3 9 -3 9 -11 13 -18 9 -6 -4 -5 1 3 10 11 14 11 17 0 17 -8 0 -5 6 7 15 10
8 15 15 9 14 -22 -3 -27 2 -15 16 9 11 9 15 1 15 -7 0 -9 5 -6 10 4 6 11 8 16
5 14 -9 11 2 -7 19 -9 9 -11 16 -4 16 6 0 8 5 4 12 -12 19 -12 48 -1 48 5 0 3
8 -4 17 -12 15 -12 16 5 10 16 -6 17 -5 6 8 -7 8 -10 24 -7 35 3 11 1 20 -5
20 -5 0 -6 5 -3 10 4 6 11 8 16 5 5 -3 6 1 3 9 -3 9 -11 13 -18 9 -6 -4 -5 1
3 10 11 14 11 17 0 17 -8 0 -5 6 7 15 10 8 15 15 9 14 -22 -3 -27 2 -15 16 9
11 9 15 1 15 -7 0 -9 5 -6 10 4 6 11 8 16 5 14 -9 11 2 -7 19 -9 9 -11 16 -4
16 6 0 8 5 4 12 -12 19 -12 48 -1 48 5 0 3 8 -4 17 -12 15 -12 16 5 10 16 -6
17 -5 6 8 -7 8 -10 24 -7 35 3 11 0 20 -6 20 -8 0 -7 4 1 12 16 16 15 31 0 22
-10 -6 -10 -4 0 7 6 7 12 17 12 22 0 4 -6 5 -12 1 -9 -5 -9 -2 1 9 10 13 10
17 1 17 -8 0 -9 4 -3 13 8 11 9 18 4 45 -1 4 -5 1 -10 -7 -6 -10 -8 -2 -6 23
3 32 0 39 -27 55 -18 12 -25 21 -19 26 6 3 9 11 5 16 -3 5 -10 6 -16 3 -5 -4
-23 3 -39 15 -16 12 -34 19 -39 16 -5 -3 -11 -1 -15 5 -4 6 -11 7 -17 4 -7 -4
-8 -2 -4 5 6 9 12 9 24 -1 15 -11 15 -11 4 4 -14 17 -28 18 -51 4 -10 -6 -12
-5 -7 2 4 7 2 12 -3 12 -6 0 -11 -4 -11 -8 0 -5 -7 -9 -15 -9 -8 0 -15 4 -15
9 0 5 -10 4 -21 -3 -15 -8 -19 -8 -15 0 9 14 -36 10 -46 -4 -5 -6 -8 -5 -8 4
0 10 -3 11 -14 2 -10 -8 -16 -9 -21 -1 -3 5 -11 10 -16 10 -6 0 -7 -5 -3 -12
5 -7 3 -8 -7 -3 -22 14 -60 15 -52 2 4 -7 -6 -4 -21 7 -16 10 -26 13 -22 8 3
-6 2 -13 -4 -17 -5 -3 -10 -2 -10 3 0 6 -9 8 -20 5 -11 -3 -28 1 -37 8 -10 8
-14 9 -10 2 4 -6 3 -14 -3 -18 -5 -3 -10 -2 -10 3 0 6 -9 8 -20 5 -11 -3 -28
1 -37 8 -10 8 -14 9 -10 2 4 -6 3 -14 -3 -18 -5 -3 -10 -2 -10 3 0 6 -9 8 -20
5 -11 -3 -28 1 -37 8 -10 8 -14 9 -10 2 4 -6 3 -14 -3 -18 -5 -3 -10 -2 -10 2
0 12 -53 10 -62 -2 -5 -6 -8 -5 -8 4 0 10 -3 11 -14 2 -10 -8 -16 -9 -21 -1
-3 5 -11 10 -16 10 -6 0 -7 -5 -3 -12 5 -7 3 -8 -7 -3 -17 11 -61 16 -55 6 3
-3 -4 -7 -15 -7 -10 0 -19 4 -19 8 0 5 -10 4 -21 -3 -15 -8 -19 -8 -15 0 9 14
-36 10 -46 -4 -5 -6 -8 -5 -8 4 0 10 -3 11 -14 2 -10 -8 -16 -9 -21 -1 -3 5
-11 10 -16 10 -6 0 -7 -5 -3 -12 5 -7 3 -8 -7 -3 -17 11 -61 16 -55 6 3 -3 -4
-7 -15 -7 -10 0 -19 4 -19 8 0 5 -10 4 -21 -3 -15 -8 -19 -8 -15 0 9 14 -36
10 -46 -4 -5 -6 -8 -5 -8 4 0 10 -3 11 -14 2 -10 -8 -16 -9 -21 -1 -3 5 -11
10 -16 10 -6 0 -7 -5 -3 -12 5 -7 3 -8 -7 -3 -22 14 -60 15 -52 2 4 -7 -6 -4
-21 7 -16 10 -26 13 -22 8 3 -6 2 -13 -4 -17 -5 -3 -10 -2 -10 3 0 6 -9 8 -20
5 -11 -3 -28 1 -37 8 -10 8 -14 9 -10 2 4 -6 3 -14 -3 -18 -5 -3 -10 -2 -10 3
0 6 -9 8 -20 5 -11 -3 -28 1 -37 8 -10 8 -14 9 -10 2 4 -6 3 -14 -3 -18 -5 -3
-10 -2 -10 3 0 6 -9 8 -20 5 -11 -3 -28 1 -37 8 -10 8 -14 9 -10 2z m-429
-123 c4 0 5 3 2 8 -2 4 11 8 30 8 19 0 34 -3 34 -8 0 -4 5 -8 11 -8 5 0 7 6 3
13 -5 7 0 6 11 -3 11 -9 16 -10 11 -2 -4 6 -3 12 1 12 5 0 15 -6 22 -12 11
-10 13 -10 7 0 -4 6 -2 12 3 12 6 0 11 -5 11 -11 0 -8 6 -7 17 2 15 12 16 12
8 -1 -8 -13 -7 -13 10 0 15 12 19 13 23 1 4 -11 6 -11 13 0 6 10 9 11 9 2 0
-7 5 -13 11 -13 5 0 8 3 5 8 -2 4 11 8 30 8 19 0 34 -3 34 -8 0 -4 5 -8 11 -8
5 0 7 6 3 13 -5 7 0 6 11 -3 11 -9 16 -10 11 -2 -4 6 -3 12 3 12 5 0 13 -5 16
-10 5 -8 11 -7 21 1 9 7 19 8 27 3 11 -8 33 -10 47 -4 14 6 111 6 115 0 3 -5
50 -6 50 0 0 1 19 3 43 5 24 2 42 -1 42 -7 0 -6 8 -4 17 3 15 12 16 12 8 -1
-8 -13 -7 -13 10 0 15 12 19 13 23 1 4 -11 6 -11 13 0 6 10 9 11 9 2 0 -7 5
-13 11 -13 5 0 8 3 5 8 -2 4 11 8 30 8 19 0 34 -3 34 -8 0 -4 5 -8 11 -8 5 0
7 6 3 13 -5 7 0 6 11 -3 11 -9 16 -10 11 -2 -4 6 -3 12 1 12 5 0 15 -6 22 -12
11 -10 13 -10 7 0 -4 6 -2 12 3 12 6 0 11 -5 11 -11 0 -8 6 -7 17 2 15 12 16
12 8 -1 -8 -13 -7 -13 10 0 15 12 19 13 23 1 4 -11 6 -11 13 0 7 12 9 12 9 0
0 -11 3 -11 17 0 15 12 16 12 8 -1 -8 -13 -7 -13 10 0 15 12 19 13 23 1 4 -11
6 -11 13 0 6 10 9 11 9 2 0 -7 5 -13 11 -13 5 0 8 3 5 8 -2 4 11 8 30 8 19 0
34 -3 34 -8 0 -4 5 -8 11 -8 5 0 7 6 3 13 -5 7 0 6 11 -3 11 -9 16 -10 11 -2
-4 6 -3 12 1 12 5 0 15 -6 22 -12 11 -10 13 -10 7 0 -4 6 -2 12 3 12 6 0 11
-5 11 -11 0 -8 6 -7 17 2 15 12 16 12 8 -1 -8 -13 -7 -13 10 0 14 12 19 12 23
2 3 -10 7 -10 18 -1 9 7 19 8 27 3 11 -8 33 -10 47 -4 14 6 111 6 115 0 3 -5
50 -6 50 0 0 1 19 3 43 5 23 2 42 -1 42 -6 0 -5 5 -9 11 -9 5 0 8 3 5 8 -2 4
11 8 30 8 19 0 34 -3 34 -8 0 -4 5 -8 11 -8 5 0 7 6 3 13 -5 7 0 6 11 -3 11
-9 16 -10 11 -2 -4 6 -3 12 1 12 5 0 15 -6 22 -12 11 -10 13 -10 7 0 -4 6 -2
12 3 12 6 0 11 -5 11 -11 0 -8 6 -7 17 2 15 12 16 12 8 -1 -8 -13 -7 -13 10 0
15 12 19 13 23 1 4 -11 6 -11 13 0 6 10 9 11 9 2 0 -7 5 -13 11 -13 5 0 7 4 4
10 -3 6 1 7 9 4 9 -3 13 -11 9 -18 -4 -6 1 -5 10 3 15 12 17 11 17 -3 0 -11 4
-14 13 -10 8 5 7 2 -2 -10 -13 -15 -12 -17 12 -12 15 2 30 0 33 -6 4 -6 2 -8
-3 -5 -6 4 -16 1 -22 -7 -9 -11 -6 -12 13 -9 21 4 24 2 19 -16 -3 -12 -1 -21
6 -21 6 0 11 -4 11 -10 0 -5 -8 -7 -17 -4 -15 5 -16 4 -3 -5 12 -7 16 -28 15
-93 0 -46 -4 -88 -8 -95 -4 -6 -4 -14 1 -17 10 -6 9 -126 -1 -143 -4 -6 -4
-14 1 -17 10 -6 9 -126 -1 -143 -4 -6 -4 -14 1 -17 10 -6 9 -126 -1 -143 -4
-6 -4 -14 1 -17 10 -6 9 -126 -1 -143 -4 -6 -4 -14 1 -17 10 -6 9 -126 -1
-143 -4 -6 -4 -14 1 -17 10 -6 9 -126 -1 -143 -4 -6 -4 -14 1 -17 10 -6 9
-126 -1 -143 -4 -6 -4 -14 1 -17 10 -6 9 -126 -1 -143 -4 -6 -4 -14 1 -17 10
-6 9 -126 -1 -143 -4 -6 -4 -14 1 -17 10 -6 9 -126 -1 -143 -4 -6 -4 -14 1
-17 5 -3 7 -29 6 -58 -2 -70 -2 -70 -16 -62 -7 5 -8 3 -4 -5 5 -7 15 -10 24
-6 13 5 13 3 -2 -14 -12 -13 -14 -21 -6 -26 8 -5 8 -10 0 -20 -7 -8 -8 -20 -4
-26 5 -9 2 -10 -10 -6 -13 5 -17 3 -13 -7 8 -21 -17 -50 -37 -43 -11 4 -15 3
-11 -4 13 -19 -14 -35 -57 -34 -24 1 -46 -3 -50 -9 -5 -7 -8 -6 -8 4 0 11 -11
15 -39 15 -22 0 -37 -3 -35 -7 8 -13 -11 -9 -25 5 -11 9 -13 9 -7 0 4 -7 2
-13 -3 -13 -6 0 -11 5 -11 11 0 8 -5 7 -15 -1 -9 -7 -18 -10 -22 -6 -3 3 0 6
7 6 7 0 10 3 7 7 -4 3 -16 -2 -27 -12 -17 -15 -20 -16 -15 -3 4 9 1 19 -6 24
-7 4 -10 3 -5 -4 8 -13 -34 -28 -43 -16 -8 11 -81 13 -75 2 8 -13 -11 -9 -25
5 -11 9 -13 9 -7 0 4 -7 2 -13 -3 -13 -6 0 -11 5 -11 11 0 8 -5 7 -15 -1 -9
-7 -18 -10 -22 -6 -3 3 0 6 7 6 7 0 10 3 7 7 -4 3 -16 -2 -27 -12 -17 -15 -20
-16 -15 -3 4 9 1 19 -6 24 -7 4 -10 3 -5 -4 8 -13 -34 -28 -43 -16 -8 11 -81
13 -75 2 8 -13 -11 -9 -25 5 -11 10 -13 9 -7 -1 4 -6 2 -12 -3 -12 -6 0 -11 5
-11 11 0 8 -5 7 -15 -1 -9 -7 -18 -10 -22 -6 -3 3 0 6 7 6 7 0 10 3 7 7 -4 3
-16 -2 -27 -12 -17 -15 -20 -16 -15 -3 4 9 1 19 -6 24 -7 4 -10 3 -5 -4 8 -13
-34 -28 -43 -16 -8 11 -81 13 -75 2 8 -13 -11 -9 -25 5 -11 9 -13 9 -7 0 4 -7
2 -13 -3 -13 -6 0 -11 5 -11 11 0 8 -5 7 -15 -1 -9 -7 -18 -10 -22 -6 -3 3 0
6 7 6 7 0 10 3 7 7 -4 3 -16 -2 -27 -12 -17 -15 -20 -16 -15 -3 4 9 1 19 -6
24 -7 4 -10 3 -5 -4 8 -13 -34 -28 -43 -16 -8 11 -81 13 -75 2 8 -13 -11 -9
-25 5 -11 10 -13 10 -7 -1 4 -6 2 -12 -3 -12 -6 0 -11 5 -11 11 0 8 -5 7 -15
-1 -9 -7 -18 -10 -22 -6 -3 3 0 6 7 6 7 0 10 3 7 7 -4 3 -16 -2 -27 -12 -17
-15 -20 -16 -15 -3 4 9 1 19 -6 24 -7 4 -10 3 -5 -4 8 -13 -34 -28 -43 -16 -8
11 -81 13 -75 2 8 -13 -11 -9 -25 4 -11 11 -13 11 -7 0 4 -6 2 -12 -3 -12 -6
0 -11 5 -11 11 0 8 -5 7 -15 -1 -9 -7 -18 -10 -22 -6 -3 3 0 6 7 6 7 0 10 3 7
7 -4 3 -16 -2 -27 -12 -17 -15 -20 -16 -15 -3 4 9 1 19 -6 24 -7 4 -10 3 -5
-4 8 -13 -34 -28 -43 -16 -8 11 -81 13 -75 2 8 -13 -11 -9 -25 5 -11 9 -13 9
-7 0 4 -7 2 -13 -3 -13 -6 0 -11 5 -11 11 0 8 -5 7 -15 -1 -9 -7 -18 -10 -22
-6 -3 3 0 6 7 6 7 0 10 3 7 7 -4 3 -16 -2 -27 -12 -17 -15 -20 -16 -15 -3 4 9
1 19 -6 24 -7 4 -10 3 -5 -4 8 -13 -34 -28 -43 -16 -8 11 -81 13 -75 2 8 -13
-11 -9 -25 4 -11 10 -13 10 -7 0 4 -6 2 -12 -3 -12 -6 0 -11 5 -11 11 0 8 -5
7 -15 -1 -9 -7 -18 -10 -22 -6 -3 3 0 6 7 6 7 0 10 3 7 7 -4 3 -16 -2 -27 -12
-16 -14 -19 -15 -15 -4 7 19 -26 19 -49 0 -13 -11 -15 -10 -11 7 3 16 -1 19
-17 14 -15 -4 -17 -7 -6 -14 10 -8 10 -9 -2 -5 -8 2 -14 13 -12 23 2 18 2 18
-14 -1 -12 -14 -15 -15 -11 -4 3 11 -3 21 -19 30 -26 13 -40 49 -30 74 3 9 2
13 -3 10 -5 -3 -12 -1 -16 5 -3 5 -1 10 5 10 6 0 8 5 5 10 -4 6 -12 7 -18 3
-7 -3 -3 3 7 15 14 17 16 22 5 22 -11 0 -11 2 1 10 8 5 10 10 4 10 -6 0 -10
15 -10 34 0 19 4 32 8 30 5 -3 8 0 8 5 0 6 -6 11 -12 12 -9 0 -9 2 1 6 11 4
11 7 0 13 -10 7 -10 12 2 26 12 16 12 17 -1 9 -13 -8 -13 -7 -1 8 11 14 11 17
0 18 -12 0 -12 1 0 6 11 4 11 7 0 13 -10 7 -10 12 2 26 12 16 12 17 -1 9 -13
-8 -13 -7 -1 8 9 11 10 17 2 17 -6 0 -11 5 -11 11 0 5 6 7 13 3 9 -6 9 -4 0 7
-17 17 -17 32 0 23 7 -5 6 0 -3 11 -9 11 -10 16 -2 11 6 -4 12 -2 12 3 0 6 -4
11 -8 11 -5 0 -8 15 -8 34 0 19 4 32 8 30 5 -3 8 0 8 5 0 6 -6 11 -12 12 -9 0
-9 2 1 6 11 4 11 7 0 13 -10 7 -10 12 2 26 12 16 12 17 -1 9 -13 -8 -13 -7 -1
8 7 9 9 17 3 17 -6 0 -9 18 -7 42 2 24 4 43 5 43 6 0 5 47 0 50 -6 4 -6 101 0
115 6 14 4 36 -4 48 -5 7 -4 17 3 26 8 10 9 16 1 21 -5 3 -10 11 -10 16 0 6 6
7 13 3 7 -5 6 0 -3 11 -9 11 -10 16 -2 11 6 -4 12 -2 12 3 0 6 -4 11 -8 11 -5
0 -8 15 -8 34 0 19 4 32 8 30 5 -3 8 0 8 5 0 6 -6 11 -12 12 -9 0 -9 2 1 6 11
4 11 7 0 13 -10 7 -10 12 2 26 12 16 12 17 -1 9 -13 -8 -13 -7 -1 8 9 11 10
17 2 17 -6 0 -11 5 -11 11 0 5 6 7 13 3 10 -6 10 -4 0 7 -17 17 -17 32 0 23 7
-5 6 0 -3 11 -9 11 -10 16 -2 11 6 -4 12 -2 12 3 0 6 -4 11 -8 11 -5 0 -8 15
-8 34 0 19 4 32 8 30 5 -3 8 0 8 5 0 6 -6 11 -12 12 -9 0 -9 2 1 6 11 4 11 7
0 13 -10 7 -10 12 2 26 12 16 12 17 -1 9 -13 -8 -13 -7 -1 8 9 11 10 17 2 17
-6 0 -11 5 -11 11 0 5 6 7 13 3 9 -6 9 -4 0 7 -17 17 -17 32 0 23 7 -5 6 0 -3
11 -9 11 -10 16 -2 11 6 -4 12 -2 12 3 0 6 -4 11 -8 11 -5 0 -8 15 -8 34 0 19
4 32 8 30 5 -3 8 0 8 5 0 6 -4 11 -9 11 -5 0 -8 19 -6 43 2 23 4 42 5 42 6 0
5 47 0 50 -6 4 -6 101 0 115 6 14 4 36 -4 48 -5 7 -4 17 3 26 9 11 9 15 -1 18
-10 4 -10 9 2 23 13 17 13 18 0 10 -13 -8 -13 -7 -1 8 9 11 10 17 2 17 -6 0
-11 5 -11 11 0 5 6 7 13 3 9 -6 9 -4 -1 8 -10 12 -10 18 -1 23 8 6 8 10 -2 16
-12 7 -12 10 0 21 11 11 13 11 6 -1 -6 -10 -4 -12 4 -6 9 5 9 11 3 17 -7 7 -2
19 14 35 14 14 23 31 20 39 -3 9 0 11 11 7 12 -5 14 -2 9 8 -4 8 0 5 8 -5 15
-18 16 -19 16 -2 0 11 5 16 14 13 7 -3 19 0 26 6 10 9 11 9 5 -3 -8 -13 -7
-13 8 -1 12 9 17 10 17 2 0 -7 5 -9 10 -6 6 4 8 12 4 18 -3 7 1 4 9 -5 8 -10
17 -18 21 -18z m2111 -10 c3 -6 -1 -7 -9 -4 -18 7 -21 14 -7 14 6 0 13 -4 16
-10z"/>
<path d="M435 2580 c-3 -5 -1 -10 4 -10 6 0 11 5 11 10 0 6 -2 10 -4 10 -3 0
-8 -4 -11 -10z"/>
<path d="M625 2490 c-4 -7 -18 -9 -32 -5 -16 4 -22 2 -18 -5 6 -9 -8 -14 -28
-11 -4 1 -7 -7 -5 -16 2 -10 -3 -18 -11 -18 -8 0 -16 -6 -19 -14 -3 -8 0 -11
7 -7 7 5 9 1 5 -8 -3 -9 -9 -14 -13 -12 -8 5 -6 -72 2 -81 4 -3 2 -14 -4 -24
-6 -13 -6 -19 1 -19 5 0 10 -5 10 -11 0 -5 -3 -8 -7 -6 -5 3 -8 -14 -8 -38 0
-24 3 -41 8 -38 4 2 7 -3 7 -12 0 -9 -3 -14 -7 -12 -9 6 -8 -71 1 -80 3 -3 1
-13 -4 -23 -7 -13 -4 -20 13 -28 24 -13 98 -12 90 1 -2 4 -9 4 -15 1 -6 -4 -4
3 5 16 12 17 14 28 6 43 -8 15 -8 18 1 12 9 -6 10 -1 4 16 -4 13 -7 29 -7 34
0 6 3 21 7 34 5 14 4 21 -1 18 -5 -4 -10 0 -10 8 0 8 5 12 10 8 5 -3 6 4 2 17
-5 15 -2 25 6 31 11 7 10 9 -4 9 -14 0 -16 4 -7 19 12 24 13 34 2 27 -5 -3 -9
1 -9 9 0 8 4 12 9 9 5 -3 7 6 4 20 -5 26 17 55 28 37 4 -6 16 -7 29 -2 12 5
31 5 42 0 27 -10 37 -11 31 -1 -3 5 1 9 9 9 8 0 12 -4 9 -9 -7 -11 3 -10 27 2
15 9 19 7 19 -7 0 -14 2 -15 9 -4 6 8 16 11 31 6 17 -5 21 -4 15 5 -6 9 -4 11
4 5 18 -10 91 -12 91 -1 0 5 7 3 14 -4 13 -10 14 -7 10 15 -3 18 -1 24 7 20 8
-6 8 -2 0 12 -6 11 -7 23 -4 27 3 3 1 6 -6 6 -7 0 -9 5 -5 11 4 7 1 10 -7 7
-8 -3 -22 -1 -31 4 -12 6 -18 5 -18 -2 0 -7 -7 -7 -21 1 -17 9 -20 8 -14 -2 6
-9 3 -10 -11 -5 -10 5 -34 8 -51 7 -18 0 -39 -1 -45 -1 -7 -1 -32 1 -55 2 -22
2 -39 0 -36 -4 2 -5 0 -8 -6 -8 -5 0 -12 6 -14 13 -4 9 -6 8 -6 -2 -1 -10 -4
-11 -15 -2 -11 9 -16 9 -21 1z"/>
<path d="M2050 2492 c-14 -2 -29 -8 -35 -14 -7 -8 -6 -9 3 -3 11 6 11 3 0 -14
-11 -18 -11 -23 2 -31 13 -9 7 -14 -12 -11 -17 2 -6 -9 22 -24 33 -17 44 -19
36 -7 -3 5 1 9 9 9 8 0 12 -5 8 -10 -3 -5 4 -6 18 -1 13 4 29 7 34 7 6 0 21
-3 34 -7 14 -5 21 -4 18 1 -4 5 0 10 8 10 8 0 12 -4 9 -9 -7 -11 3 -10 27 2
15 9 19 7 19 -7 0 -14 2 -15 9 -4 6 8 16 11 31 6 16 -5 20 -4 15 5 -4 7 3 6
22 -3 19 -10 34 -12 45 -6 15 8 16 4 13 -33 -3 -27 -1 -38 4 -29 7 10 9 7 8
-11 -2 -18 -6 -24 -17 -20 -13 5 -13 3 -1 -11 9 -11 11 -29 7 -54 -5 -25 -4
-33 3 -24 7 10 9 8 8 -11 -2 -18 -6 -24 -17 -20 -13 5 -13 3 -1 -11 8 -11 11
-28 7 -48 -3 -16 -2 -28 2 -25 5 3 9 -1 9 -9 0 -8 -5 -11 -10 -8 -6 4 -8 -1
-4 -11 4 -10 7 -25 8 -34 0 -12 2 -13 6 -4 4 10 8 9 19 -5 9 -13 13 -14 14 -4
0 11 3 11 17 0 14 -12 16 -12 8 0 -6 11 -4 13 11 7 10 -4 15 -4 11 0 -4 4 -2
13 3 19 13 15 20 76 9 69 -11 -7 -11 -1 1 30 5 15 6 28 0 31 -5 3 -7 11 -5 18
9 25 12 86 4 81 -11 -7 -11 -1 1 30 6 16 6 27 -1 31 -5 4 -7 10 -5 14 14 22
14 62 0 68 -12 4 -13 8 -4 13 9 5 6 10 -9 15 -11 3 -21 15 -21 25 0 10 -5 22
-12 26 -7 4 -8 3 -4 -4 4 -7 1 -12 -9 -12 -9 0 -13 4 -10 10 4 6 -6 8 -24 6
-17 -2 -28 1 -25 5 3 5 0 9 -5 9 -6 0 -11 -4 -11 -10 0 -5 -5 -10 -11 -10 -5
0 -7 6 -3 13 6 9 5 9 -7 0 -8 -6 -20 -8 -27 -4 -6 4 -27 6 -44 4 -39 -5 -41
-5 -95 -1 -22 2 -39 0 -36 -4 2 -5 0 -8 -6 -8 -5 0 -12 6 -14 13 -4 9 -6 8 -6
-2 -1 -9 -5 -10 -13 -4 -7 5 -24 7 -38 5z m320 -98 c0 -8 -19 -13 -24 -6 -3 5
1 9 9 9 8 0 15 -2 15 -3z"/>
<path d="M2467 2449 c7 -7 15 -10 18 -7 3 3 -2 9 -12 12 -14 6 -15 5 -6 -5z"/>
<path d="M1050 1873 c-17 -8 -24 -19 -22 -34 2 -13 0 -19 -7 -15 -6 4 -11 2
-11 -3 0 -6 7 -11 15 -11 8 0 15 -5 15 -11 0 -6 -7 -8 -16 -5 -14 5 -15 4 -4
-9 7 -8 10 -24 7 -35 -3 -11 -1 -22 3 -25 4 -3 6 -14 3 -25 -3 -11 -10 -17
-16 -13 -6 4 -1 -7 11 -25 16 -21 28 -29 39 -25 12 5 14 3 8 -8 -5 -8 2 -5 15
6 14 12 20 14 15 5 -7 -12 -6 -13 7 -3 8 7 18 11 22 8 3 -3 2 0 -3 6 -5 6 -7
18 -4 26 3 8 0 19 -8 24 -11 7 -10 9 5 9 14 0 16 3 7 13 -8 10 -7 17 2 27 6 7
7 10 2 7 -13 -7 -14 65 -2 74 4 3 -4 18 -18 33 -14 15 -25 21 -25 14 0 -9 -3
-9 -8 -2 -5 7 -15 6 -32 -3z"/>
<path d="M1521 1883 c-1 -7 -8 -13 -17 -13 -8 0 -12 -4 -9 -10 11 -18 14 -51
4 -45 -13 9 -11 -9 4 -24 10 -11 10 -13 0 -7 -7 4 -13 2 -13 -3 0 -6 6 -11 13
-11 8 0 8 -3 2 -8 -9 -6 -13 -65 -5 -74 7 -10 7 -37 -1 -32 -13 8 -11 -10 4
-25 10 -11 10 -13 0 -7 -7 4 -13 2 -13 -3 0 -6 6 -11 13 -11 8 0 8 -3 2 -8 -9
-6 -13 -65 -5 -74 7 -10 7 -37 -1 -32 -12 7 -11 -3 1 -26 7 -13 7 -21 0 -25
-6 -4 -7 -12 -3 -18 4 -7 -2 -5 -12 3 -11 9 -16 10 -11 3 4 -8 2 -13 -4 -13
-6 0 -9 -4 -5 -9 5 -10 -18 -8 -57 5 -16 5 -19 3 -12 -7 6 -11 4 -11 -10 0
-15 12 -17 12 -14 0 2 -9 -4 -13 -17 -11 l-20 4 20 -16 c11 -8 15 -16 10 -16
-6 0 -11 -11 -11 -25 0 -18 4 -24 14 -20 9 3 12 0 9 -8 -3 -8 1 -14 9 -14 8 0
14 5 14 11 0 6 5 4 10 -4 7 -11 10 -11 10 -2 0 10 5 10 20 2 14 -7 20 -7 20 0
0 5 5 10 11 10 5 0 7 -4 4 -10 -3 -5 -1 -10 4 -10 6 0 11 6 11 14 0 8 4 18 10
21 5 3 7 0 4 -8 -3 -8 1 -14 10 -14 8 0 12 6 9 13 -3 9 2 12 14 9 12 -2 20 2
20 10 0 7 -7 11 -16 8 -9 -2 -3 3 12 12 16 9 25 21 21 27 -4 7 -3 8 4 4 8 -5
12 2 12 19 0 18 4 24 13 19 10 -6 10 -4 0 7 -16 16 -17 33 -2 23 8 -5 8 -1 0
14 -13 24 -14 35 -3 28 4 -2 8 4 8 14 0 10 -3 17 -6 15 -4 -2 -7 9 -7 25 0 16
3 27 7 25 3 -2 6 5 6 15 0 10 -3 17 -6 15 -4 -2 -7 9 -7 25 0 16 3 27 7 25 3
-2 6 5 6 15 0 10 -3 17 -6 15 -4 -2 -7 9 -7 25 0 16 3 27 7 25 3 -2 6 5 6 15
0 10 -3 17 -6 15 -4 -2 -7 9 -7 25 0 18 4 27 11 23 6 -4 2 4 -8 16 -19 21 -19
21 -1 15 13 -5 16 -4 11 4 -4 7 -14 12 -22 12 -8 0 -14 6 -14 13 0 8 -4 7 -10
-3 -9 -13 -10 -13 -10 0 0 12 -2 13 -9 1 -7 -11 -9 -11 -14 0 -4 10 -6 10 -6
2z"/>
<path d="M1885 1870 c-11 -12 -16 -29 -13 -44 3 -14 1 -23 -3 -20 -15 9 -10
-14 7 -30 10 -10 11 -16 4 -16 -7 0 -10 -8 -7 -20 3 -11 1 -20 -4 -20 -4 0 -6
-7 -3 -15 4 -8 11 -12 18 -9 6 3 4 0 -5 -8 -18 -15 -14 -38 7 -38 9 0 13 -4
10 -8 -2 -4 6 -8 20 -8 13 0 24 5 24 11 0 5 5 3 10 -5 8 -13 10 -12 10 3 0 10
5 15 10 12 6 -3 10 -1 10 4 0 6 -4 11 -8 11 -10 0 -9 30 1 47 4 6 1 14 -5 16
-10 4 -10 6 0 6 6 1 12 6 12 12 0 5 -3 8 -7 6 -5 -3 -8 10 -8 29 0 19 2 34 5
34 3 0 6 9 7 20 1 13 -2 18 -9 14 -7 -5 -9 -1 -5 9 3 10 2 18 -3 18 -6 1 -16
2 -22 3 -7 1 -19 -3 -27 -8 -11 -8 -13 -8 -7 2 11 18 1 15 -19 -8z m65 0 c0
-5 -5 -10 -11 -10 -5 0 -7 5 -4 10 3 6 8 10 11 10 2 0 4 -4 4 -10z"/>
<path d="M1975 1801 c-3 -5 -2 -12 3 -15 5 -3 9 1 9 9 0 17 -3 19 -12 6z"/>
<path d="M1476 1462 c-3 -5 1 -9 9 -9 8 0 12 4 9 9 -3 4 -7 8 -9 8 -2 0 -6 -4
-9 -8z"/>
<path d="M1185 1120 c2 -11 0 -18 -4 -15 -10 5 -24 -25 -16 -33 3 -3 5 1 5 8
0 7 3 10 6 7 4 -4 2 -13 -4 -20 -9 -11 -4 -16 23 -27 30 -12 40 -25 37 -51 -1
-3 10 -4 24 -1 26 5 68 -23 58 -39 -3 -5 2 -6 10 -3 8 3 17 13 19 22 4 15 5
15 6 0 0 -10 7 -18 14 -18 8 0 8 -3 -2 -9 -10 -7 -7 -9 12 -8 19 2 23 5 15 15
-8 9 -7 11 6 6 9 -3 16 -10 16 -14 0 -4 7 -11 16 -14 13 -5 14 -3 6 6 -8 10
-5 13 13 13 13 0 21 -3 19 -6 -2 -4 5 -9 16 -12 11 -3 23 0 27 5 4 7 1 8 -7 3
-9 -5 -11 -4 -6 4 5 7 12 9 19 3 18 -13 49 -23 43 -13 -3 5 3 11 14 14 11 3
18 2 15 -2 -2 -4 2 -8 10 -8 8 0 12 4 10 8 -3 4 2 10 11 13 8 3 12 2 9 -4 -3
-6 -2 -10 2 -10 5 0 14 9 20 19 9 14 20 18 39 15 22 -4 25 -2 20 13 -6 14 -5
15 5 6 10 -10 16 -10 30 3 9 8 26 16 37 17 11 0 18 5 16 9 -3 4 -1 15 4 24 8
15 10 15 15 0 5 -11 3 -15 -5 -10 -7 4 -8 3 -4 -5 12 -18 28 -1 23 25 -3 15 0
21 7 17 6 -3 0 6 -14 22 -23 26 -24 27 -3 16 16 -8 24 -8 29 1 4 7 3 8 -4 4
-7 -4 -12 -3 -12 1 0 15 -44 13 -69 -3 -13 -9 -21 -11 -17 -6 3 6 2 13 -4 17
-5 3 -10 -3 -10 -14 0 -12 -5 -21 -11 -21 -5 0 -7 5 -3 12 4 7 3 8 -5 4 -6 -4
-9 -11 -6 -16 3 -5 1 -11 -5 -15 -5 -3 -10 0 -10 7 0 10 -2 10 -9 -1 -5 -8
-18 -12 -30 -8 -12 3 -19 2 -17 -2 3 -4 1 -13 -4 -21 -11 -19 -60 -21 -60 -3
0 7 -4 13 -10 13 -5 0 -9 -3 -9 -7 1 -5 1 -15 0 -23 -1 -12 -4 -12 -12 3 -5 9
-15 17 -22 17 -7 0 -6 -4 3 -10 13 -8 13 -10 -2 -10 -9 0 -20 5 -24 12 -5 8
-11 6 -20 -6 -11 -16 -13 -16 -19 3 -3 12 -11 18 -17 15 -6 -4 -5 -10 3 -16
11 -7 9 -8 -6 -6 -11 2 -19 11 -19 20 1 10 -4 14 -12 11 -7 -2 -11 -12 -8 -21
3 -9 -1 -7 -7 6 -9 16 -21 22 -46 22 -19 0 -32 4 -28 9 3 5 1 13 -5 16 -6 4
-10 3 -9 -2 3 -20 -2 -23 -16 -9 -8 8 -15 23 -15 33 0 15 -2 16 -10 3 -8 -13
-10 -12 -10 3 0 14 -4 16 -18 8 -11 -6 -24 -6 -34 0 -14 8 -16 6 -13 -11z
m185 -70 c0 -5 -2 -10 -4 -10 -3 0 -8 5 -11 10 -3 6 -1 10 4 10 6 0 11 -4 11
-10z m-40 -80 c0 -5 -2 -10 -4 -10 -3 0 -8 5 -11 10 -3 6 -1 10 4 10 6 0 11
-4 11 -10z"/>
<path d="M1192 1024 c10 -10 20 -16 22 -13 3 3 -5 11 -17 18 -21 13 -21 12 -5
-5z"/>
<path d="M555 990 c-11 -4 -24 -5 -29 -2 -5 3 -6 -3 -3 -12 5 -14 3 -17 -7
-13 -12 5 -13 1 -6 -18 7 -18 6 -25 -3 -25 -8 0 -8 -3 2 -9 11 -7 11 -9 0 -14
-11 -4 -11 -6 -1 -6 7 -1 10 -6 7 -12 -10 -16 -12 -69 -3 -63 4 3 8 -2 8 -11
0 -9 -4 -14 -9 -11 -5 3 -5 -14 0 -38 4 -25 4 -58 -1 -75 -5 -19 -5 -29 1 -26
5 4 9 -1 9 -10 0 -9 -4 -14 -9 -11 -4 3 -6 -6 -3 -19 2 -14 9 -22 15 -18 5 3
7 1 4 -4 -4 -6 4 -22 17 -36 13 -13 26 -32 29 -40 6 -16 23 -17 44 -4 6 4 14
3 18 -2 3 -7 15 -7 29 -1 13 5 26 7 29 4 9 -9 47 -13 42 -3 -4 5 -2 9 4 9 5 0
12 -6 14 -12 3 -7 6 -8 6 -2 1 10 19 10 84 1 15 -2 27 0 27 4 0 5 5 9 11 9 5
0 7 -4 4 -10 -4 -6 2 -7 17 -1 13 5 31 5 39 1 15 -9 39 0 42 16 1 5 6 8 11 6
5 -2 3 4 -4 13 -11 13 -11 21 -2 35 10 16 9 18 -4 13 -13 -5 -15 -1 -9 18 4
17 3 20 -3 10 -6 -8 -19 -12 -30 -9 -10 3 -27 1 -37 -5 -12 -6 -16 -6 -11 1 7
11 -56 8 -75 -4 -7 -4 -9 -3 -6 3 4 6 -4 11 -18 11 -14 0 -23 -4 -20 -8 2 -3
-2 -7 -10 -7 -8 0 -12 3 -11 6 2 3 -15 6 -39 6 -26 0 -41 -4 -37 -10 3 -5 -2
-4 -11 4 -14 11 -17 11 -17 0 -1 -11 -3 -10 -13 2 -7 9 -19 18 -27 22 -8 3
-10 6 -4 6 11 1 10 52 -1 72 -5 7 -4 10 2 6 12 -8 10 54 -3 74 -4 7 -3 9 3 6
12 -8 10 54 -3 74 -4 7 -3 9 3 6 11 -7 10 100 -2 111 -4 4 -5 -2 -1 -13 6 -19
5 -19 -11 1 -13 16 -23 20 -38 14z"/>
<path d="M1745 991 c-3 -5 -2 -12 3 -15 5 -3 9 1 9 9 0 17 -3 19 -12 6z"/>
<path d="M2421 993 c-1 -8 -8 -10 -18 -6 -16 6 -16 5 -4 -10 12 -15 12 -17 0
-12 -10 4 -15 -4 -16 -27 -2 -22 0 -28 6 -19 7 10 9 7 8 -11 -2 -18 -6 -24
-17 -20 -13 5 -13 3 -1 -11 8 -11 11 -28 7 -48 -3 -16 -2 -28 2 -25 5 3 9 -1
9 -9 0 -8 -3 -12 -7 -10 -3 2 -6 -11 -6 -30 0 -19 3 -32 7 -29 4 2 4 -8 0 -24
-5 -17 -5 -36 1 -47 7 -12 7 -16 0 -11 -5 3 -13 -1 -16 -10 -3 -8 -2 -12 4 -9
6 3 10 4 10 1 0 -3 -10 -10 -21 -17 -15 -8 -19 -8 -15 0 4 6 3 11 -3 11 -5 0
-12 -6 -14 -12 -3 -7 -6 -8 -6 -2 -1 11 -52 10 -72 -1 -8 -6 -10 -4 -4 5 5 9
2 10 -14 5 -13 -4 -29 -1 -38 7 -14 11 -16 11 -11 -2 4 -11 -2 -15 -20 -17
-14 0 -20 2 -13 6 6 4 -11 7 -38 7 -27 -1 -47 -5 -44 -9 3 -5 -3 -4 -14 1 -25
14 -54 -3 -46 -25 5 -11 3 -14 -6 -8 -10 6 -11 3 -2 -12 6 -11 8 -22 6 -25 -2
-2 9 -12 25 -22 17 -9 30 -12 30 -7 0 6 5 11 11 11 5 0 7 -4 4 -10 -4 -7 2 -7
18 -1 14 6 27 8 30 5 9 -9 47 -13 42 -3 -4 5 -2 9 4 9 5 0 12 -6 14 -12 3 -7
6 -8 6 -2 1 10 19 10 84 1 15 -2 27 0 27 4 0 5 5 9 11 9 5 0 7 -4 4 -10 -4 -6
2 -7 17 -1 15 6 31 5 42 -1 14 -8 17 -7 12 1 -9 14 0 14 27 -1 20 -10 21 -10
8 5 -12 15 -11 17 8 17 11 0 21 5 21 11 0 5 -5 7 -12 3 -7 -4 -8 -3 -4 5 6 9
11 9 22 0 12 -10 13 -9 8 6 -5 12 -4 16 3 12 7 -4 10 0 8 10 -1 10 0 23 3 28
9 15 9 64 0 59 -10 -7 -10 -1 2 30 5 15 6 28 0 31 -5 3 -7 11 -5 18 9 25 12
86 4 81 -11 -7 -11 -1 1 30 5 14 5 28 1 31 -5 3 -5 21 -1 40 5 20 4 33 -1 29
-5 -3 -9 -1 -9 5 0 5 6 12 13 15 6 3 3 4 -8 3 -12 -1 -19 3 -17 11 2 10 -2 10
-17 3 -14 -8 -21 -7 -24 2 -4 9 -6 9 -6 0z"/>
<path d="M1656 953 c-6 -14 -5 -15 5 -6 7 7 10 15 7 18 -3 3 -9 -2 -12 -12z"/>
<path d="M520 565 c0 -5 5 -17 10 -25 5 -8 10 -10 10 -5 0 6 -5 17 -10 25 -5
8 -10 11 -10 5z"/>
<path d="M2610 2686 c0 -2 7 -7 16 -10 8 -3 12 -2 9 4 -6 10 -25 14 -25 6z"/>
<path d="M420 291 c0 -6 4 -13 10 -16 6 -3 7 1 4 9 -7 18 -14 21 -14 7z"/>
<path d="M2565 289 c-4 -6 -5 -12 -2 -15 2 -3 7 2 10 11 7 17 1 20 -8 4z"/>
</g>
</svg>
